# xmcd
# 
# Track frame offsets:
#     150
#     13915
#     24482
#     35754
#     46543
#     57501
#     70414
#     79497
#     92510
#     100981
#     113018
#     123075
#     135305
#     146457
#     156737
#     166308
#     177174
#     187693
#     199504
#     210459
# 
# Disc length: 2942
# 
# Revision: 1
# Processed by: cddbd v1.5.2PL0 Copyright (c) Steve Scherf et al.
# Submitted via: fre:ac v1.0.17
# 
DISCID=0b0b7c14
DTITLE=Various Artist - Get A Job - The Ember Records Story - Disc 2
DYEAR=0
DGENRE=
TTITLE0=The Five Satins - In The Still Of The Night
TTITLE1=Ruby Greene - You're The One For Me
TTITLE2=The Honeycones - Op
TTITLE3=The Silhouettes - Headin' For The Poorhouse
TTITLE4=Cousin Leroy - Will A Matchbox Hold My Clothes
TTITLE5=Fern Dee - Hello Mr. Dream Man
TTITLE6=Dean and Jean - We're Gonna Get Married
TTITLE7=The Colonairs - Can't Stand To Lose You
TTITLE8=The Chips - Bye Bye My Love
TTITLE9=The Edsels - Three Precious Words
TTITLE10=Billy Myles - I'm Gonna Walk
TTITLE11=The Illusions - Can't We Fall In Love
TTITLE12=Gloria Lynne - Cool Daddy
TTITLE13=Jo-An Baker and Belginettes - You're Someone
TTITLE14=Jimmy Young - Need Your Love
TTITLE15=The Boptones - I Had A Love
TTITLE16=Lee Allen - Jim Jam
TTITLE17=The Concords - I'll Always Say Please
TTITLE18=The Marktones - Talk It Over
TTITLE19=Little Jerry - Don't You Feel
EXTD=
EXTT0=
EXTT1=
EXTT2=
EXTT3=
EXTT4=
EXTT5=
EXTT6=
EXTT7=
EXTT8=
EXTT9=
EXTT10=
EXTT11=
EXTT12=
EXTT13=
EXTT14=
EXTT15=
EXTT16=
EXTT17=
EXTT18=
EXTT19=
PLAYORDER=
